<mxfile host="65bd71144e" scale="1.2" border="0">
    <diagram id="Aivqml-ADPJbA_GyeIOO" name="Page-1">
        <mxGraphModel dx="1118" dy="574" grid="1" gridSize="10" guides="1" tooltips="1" connect="1" arrows="1" fold="1" page="1" pageScale="1" pageWidth="827" pageHeight="1169" background="#FFFFFF" math="0" shadow="0">
            <root>
                <mxCell id="0"/>
                <mxCell id="1" parent="0"/>
                <mxCell id="2" value="" style="edgeStyle=none;rounded=0;orthogonalLoop=1;jettySize=auto;html=1;fillColor=#FFFFFF;strokeColor=#000000;fontColor=#000000;labelBackgroundColor=none;" parent="1" source="3" target="5" edge="1">
                    <mxGeometry relative="1" as="geometry"/>
                </mxCell>
                <mxCell id="3" value="start" style="ellipse;whiteSpace=wrap;html=1;fillColor=#CCFFCC;strokeColor=#000000;fontColor=#000000;labelBackgroundColor=none;endArrow=classic;fontSize=11;rounded=0;" parent="1" vertex="1">
                    <mxGeometry x="260" y="60" width="80" height="40" as="geometry"/>
                </mxCell>
                <mxCell id="4" value="" style="edgeStyle=none;rounded=0;orthogonalLoop=1;jettySize=auto;html=1;fillColor=#FFFFFF;strokeColor=#000000;fontColor=#000000;labelBackgroundColor=none;" parent="1" source="5" target="8" edge="1">
                    <mxGeometry relative="1" as="geometry"/>
                </mxCell>
                <mxCell id="5" value="n = 5&lt;br&gt;arr[n]&lt;br&gt;len = Length(arr)" style="rounded=0;whiteSpace=wrap;html=1;fillColor=#FFFFFF;strokeColor=#000000;fontColor=#000000;labelBackgroundColor=none;endArrow=classic;fontSize=11;" parent="1" vertex="1">
                    <mxGeometry x="240" y="130" width="120" height="50" as="geometry"/>
                </mxCell>
                <mxCell id="6" value="" style="edgeStyle=none;rounded=0;orthogonalLoop=1;jettySize=auto;html=1;fillColor=#FFFFFF;strokeColor=#000000;fontColor=#000000;labelBackgroundColor=none;" parent="1" source="8" target="10" edge="1">
                    <mxGeometry relative="1" as="geometry"/>
                </mxCell>
                <mxCell id="7" style="edgeStyle=none;rounded=0;orthogonalLoop=1;jettySize=auto;html=1;exitX=1;exitY=0.5;exitDx=0;exitDy=0;fillColor=#FFFFFF;strokeColor=#000000;fontColor=#000000;labelBackgroundColor=none;" parent="1" source="8" target="22" edge="1">
                    <mxGeometry relative="1" as="geometry">
                        <mxPoint x="475" y="270" as="targetPoint"/>
                        <Array as="points">
                            <mxPoint x="480" y="235"/>
                        </Array>
                    </mxGeometry>
                </mxCell>
                <mxCell id="8" value="i = 0, len -1, 1" style="shape=hexagon;perimeter=hexagonPerimeter2;whiteSpace=wrap;html=1;fixedSize=1;fillColor=#FFFFFF;strokeColor=#000000;fontColor=#000000;labelBackgroundColor=none;endArrow=classic;fontSize=11;rounded=0;" parent="1" vertex="1">
                    <mxGeometry x="220" y="210" width="160" height="50" as="geometry"/>
                </mxCell>
                <mxCell id="9" style="edgeStyle=none;rounded=0;orthogonalLoop=1;jettySize=auto;html=1;exitX=0.5;exitY=1;exitDx=0;exitDy=0;entryX=0;entryY=0.5;entryDx=0;entryDy=0;fillColor=#FFFFFF;strokeColor=#000000;fontColor=#000000;labelBackgroundColor=none;" parent="1" source="10" target="8" edge="1">
                    <mxGeometry relative="1" as="geometry">
                        <Array as="points">
                            <mxPoint x="300" y="380"/>
                            <mxPoint x="180" y="380"/>
                            <mxPoint x="180" y="235"/>
                        </Array>
                    </mxGeometry>
                </mxCell>
                <mxCell id="10" value="arr[i] = Random [100, 999]" style="whiteSpace=wrap;html=1;fillColor=#FFFFFF;strokeColor=#000000;fontColor=#000000;labelBackgroundColor=none;endArrow=classic;fontSize=11;rounded=0;" parent="1" vertex="1">
                    <mxGeometry x="210" y="290" width="180" height="60" as="geometry"/>
                </mxCell>
                <mxCell id="11" value="" style="edgeStyle=none;rounded=0;orthogonalLoop=1;jettySize=auto;html=1;fillColor=#FFFFFF;strokeColor=#000000;fontColor=#000000;labelBackgroundColor=none;" parent="1" source="12" target="18" edge="1">
                    <mxGeometry relative="1" as="geometry"/>
                </mxCell>
                <mxCell id="12" value="&lt;span&gt;i = 0, len -1, 1&lt;/span&gt;" style="shape=hexagon;perimeter=hexagonPerimeter2;whiteSpace=wrap;html=1;fixedSize=1;fillColor=#FFFFFF;strokeColor=#000000;fontColor=#000000;labelBackgroundColor=none;endArrow=classic;fontSize=11;rounded=0;" parent="1" vertex="1">
                    <mxGeometry x="410" y="350" width="140" height="50" as="geometry"/>
                </mxCell>
                <mxCell id="13" value="" style="edgeStyle=none;rounded=0;orthogonalLoop=1;jettySize=auto;html=1;fillColor=#FFFFFF;strokeColor=#000000;fontColor=#000000;labelBackgroundColor=none;" parent="1" source="18" target="20" edge="1">
                    <mxGeometry relative="1" as="geometry"/>
                </mxCell>
                <mxCell id="15" style="edgeStyle=none;rounded=0;orthogonalLoop=1;jettySize=auto;html=1;exitX=1;exitY=0.5;exitDx=0;exitDy=0;entryX=0.5;entryY=0;entryDx=0;entryDy=0;fillColor=#FFFFFF;strokeColor=#000000;fontColor=#000000;labelBackgroundColor=none;" parent="1" source="12" target="24" edge="1">
                    <mxGeometry relative="1" as="geometry">
                        <Array as="points">
                            <mxPoint x="650" y="375"/>
                            <mxPoint x="650" y="450"/>
                        </Array>
                    </mxGeometry>
                </mxCell>
                <mxCell id="16" style="edgeStyle=none;rounded=0;orthogonalLoop=1;jettySize=auto;html=1;exitX=1;exitY=0.5;exitDx=0;exitDy=0;endArrow=oval;endFill=1;fillColor=#FFFFFF;strokeColor=#000000;fontColor=#000000;labelBackgroundColor=none;" parent="1" source="18" edge="1">
                    <mxGeometry relative="1" as="geometry">
                        <mxPoint x="480" y="570" as="targetPoint"/>
                        <Array as="points">
                            <mxPoint x="570" y="450"/>
                            <mxPoint x="570" y="570"/>
                        </Array>
                    </mxGeometry>
                </mxCell>
                <mxCell id="17" value="NO" style="edgeLabel;html=1;align=center;verticalAlign=middle;resizable=0;points=[];endArrow=classic;rounded=0;strokeColor=#000000;fillColor=#FFFFFF;fontColor=#000000;labelBackgroundColor=#FFFFFF;" parent="16" vertex="1" connectable="0">
                    <mxGeometry x="-0.9487" y="-2" relative="1" as="geometry">
                        <mxPoint x="4" y="-2" as="offset"/>
                    </mxGeometry>
                </mxCell>
                <mxCell id="18" value="arr[i] % 2 == 0" style="rhombus;whiteSpace=wrap;html=1;fillColor=#FFFFFF;strokeColor=#000000;fontColor=#000000;labelBackgroundColor=none;endArrow=classic;fontSize=11;rounded=0;" parent="1" vertex="1">
                    <mxGeometry x="414" y="420" width="132" height="60" as="geometry"/>
                </mxCell>
                <mxCell id="19" style="edgeStyle=none;rounded=0;orthogonalLoop=1;jettySize=auto;html=1;entryX=0;entryY=0.5;entryDx=0;entryDy=0;exitX=0.5;exitY=1;exitDx=0;exitDy=0;fillColor=#FFFFFF;strokeColor=#000000;fontColor=#000000;labelBackgroundColor=none;" parent="1" source="20" target="12" edge="1">
                    <mxGeometry relative="1" as="geometry">
                        <Array as="points">
                            <mxPoint x="480" y="570"/>
                            <mxPoint x="380" y="570"/>
                            <mxPoint x="380" y="375"/>
                        </Array>
                    </mxGeometry>
                </mxCell>
                <mxCell id="51" value="" style="edgeStyle=none;html=1;labelBackgroundColor=#F0F0F0;fontFamily=Helvetica;fontSize=11;fontColor=#000000;endArrow=none;endFill=0;strokeColor=#000000;" parent="1" source="20" target="18" edge="1">
                    <mxGeometry relative="1" as="geometry"/>
                </mxCell>
                <mxCell id="52" value="YES" style="edgeLabel;html=1;align=center;verticalAlign=middle;resizable=0;points=[];fontSize=11;fontFamily=Helvetica;fontColor=#000000;labelBackgroundColor=#FFFFFF;" parent="51" vertex="1" connectable="0">
                    <mxGeometry x="0.6074" relative="1" as="geometry">
                        <mxPoint y="4" as="offset"/>
                    </mxGeometry>
                </mxCell>
                <mxCell id="20" value="even = even +1" style="whiteSpace=wrap;html=1;fillColor=#FFFFFF;strokeColor=#000000;fontColor=#000000;labelBackgroundColor=none;endArrow=classic;fontSize=11;rounded=0;" parent="1" vertex="1">
                    <mxGeometry x="420" y="510" width="120" height="40" as="geometry"/>
                </mxCell>
                <mxCell id="21" value="" style="edgeStyle=none;rounded=0;orthogonalLoop=1;jettySize=auto;html=1;entryX=0.5;entryY=0;entryDx=0;entryDy=0;fillColor=#FFFFFF;strokeColor=#000000;fontColor=#000000;labelBackgroundColor=none;" parent="1" source="22" target="12" edge="1">
                    <mxGeometry relative="1" as="geometry"/>
                </mxCell>
                <mxCell id="22" value="even = 0" style="rounded=0;whiteSpace=wrap;html=1;fillColor=#FFFFFF;strokeColor=#000000;fontColor=#000000;labelBackgroundColor=none;endArrow=classic;fontSize=11;" parent="1" vertex="1">
                    <mxGeometry x="420" y="280" width="120" height="30" as="geometry"/>
                </mxCell>
                <mxCell id="23" value="" style="edgeStyle=none;rounded=0;orthogonalLoop=1;jettySize=auto;html=1;exitX=0.492;exitY=0.839;exitDx=0;exitDy=0;exitPerimeter=0;fillColor=#FFFFFF;strokeColor=#000000;fontColor=#000000;labelBackgroundColor=none;" parent="1" source="24" target="25" edge="1">
                    <mxGeometry relative="1" as="geometry"/>
                </mxCell>
                <mxCell id="24" value="arr&lt;br&gt;even" style="shape=document;whiteSpace=wrap;html=1;boundedLbl=1;fillColor=#FFE6CC;strokeColor=#000000;fontColor=#000000;labelBackgroundColor=none;endArrow=classic;fontSize=11;rounded=0;" parent="1" vertex="1">
                    <mxGeometry x="590" y="400" width="120" height="60" as="geometry"/>
                </mxCell>
                <mxCell id="25" value="end" style="ellipse;whiteSpace=wrap;html=1;fillColor=#CCFFCC;strokeColor=#000000;fontColor=#000000;labelBackgroundColor=none;endArrow=classic;fontSize=11;rounded=0;" parent="1" vertex="1">
                    <mxGeometry x="610" y="500" width="80" height="40" as="geometry"/>
                </mxCell>
            </root>
        </mxGraphModel>
    </diagram>
</mxfile>